--40002LOG 18:08:44:676176500 Waiting for file /home/seluser/videos/vid_chrome_or_firefox_40002* to be created...
Won't start video recording due to VIDEO env var false
ffmpeg version 2.8.17-0ubuntu0.1 Copyright (c) 2000-2020 the FFmpeg developers
  built with gcc 5.4.0 (Ubuntu 5.4.0-6ubuntu1~16.04.12) 20160609
  configuration: --prefix=/usr --extra-version=0ubuntu0.1 --build-suffix=-ffmpeg --toolchain=hardened --libdir=/usr/lib/x86_64-linux-gnu --incdir=/usr/include/x86_64-linux-gnu --cc=cc --cxx=g++ --enable-gpl --enable-shared --disable-stripping --disable-decoder=libopenjpeg --disable-decoder=libschroedinger --enable-avresample --enable-avisynth --enable-gnutls --enable-ladspa --enable-libass --enable-libbluray --enable-libbs2b --enable-libcaca --enable-libcdio --enable-libflite --enable-libfontconfig --enable-libfreetype --enable-libfribidi --enable-libgme --enable-libgsm --enable-libmodplug --enable-libmp3lame --enable-libopenjpeg --enable-libopus --enable-libpulse --enable-librtmp --enable-libschroedinger --enable-libshine --enable-libsnappy --enable-libsoxr --enable-libspeex --enable-libssh --enable-libtheora --enable-libtwolame --enable-libvorbis --enable-libvpx --enable-libwavpack --enable-libwebp --enable-libx265 --enable-libxvid --enable-libzvbi --enable-openal --enable-opengl --enable-x11grab --enable-libdc1394 --enable-libiec61883 --enable-libzmq --enable-frei0r --enable-libx264 --enable-libopencv
  libavutil      54. 31.100 / 54. 31.100
  libavcodec     56. 60.100 / 56. 60.100
  libavformat    56. 40.101 / 56. 40.101
  libavdevice    56.  4.100 / 56.  4.100
  libavfilter     5. 40.101 /  5. 40.101
  libavresample   2.  1.  0 /  2.  1.  0
  libswscale      3.  1.101 /  3.  1.101
  libswresample   1.  2.101 /  1.  2.101
  libpostproc    53.  3.100 / 53.  3.100
Input #0, x11grab, from ':38.0':
  Duration: N/A, start: 1605197324.819021, bitrate: N/A
    Stream #0:0: Video: rawvideo (BGR[0] / 0x524742), bgr0, 1366x768, 10 fps, 10 tbr, 1000k tbn, 10 tbc
[libx264 @ 0xf5f320] using cpu capabilities: MMX2 SSE2Fast SSSE3 SSE4.2 AVX FMA3 AVX2 LZCNT BMI2
[libx264 @ 0xf5f320] profile Constrained Baseline, level 3.2
[libx264 @ 0xf5f320] 264 - core 148 r2643 5c65704 - H.264/MPEG-4 AVC codec - Copyleft 2003-2015 - http://www.videolan.org/x264.html - options: cabac=0 ref=1 deblock=0:0:0 analyse=0:0 me=dia subme=0 psy=1 psy_rd=1.00:0.00 mixed_ref=0 me_range=16 chroma_me=1 trellis=0 8x8dct=0 cqm=0 deadzone=21,11 fast_pskip=1 chroma_qp_offset=0 threads=3 lookahead_threads=1 sliced_threads=0 nr=0 decimate=1 interlaced=0 bluray_compat=0 constrained_intra=0 bframes=0 weightp=0 keyint=250 keyint_min=10 scenecut=0 intra_refresh=0 rc=crf mbtree=0 crf=23.0 qcomp=0.60 qpmin=0 qpmax=69 qpstep=4 ip_ratio=1.40 aq=0
Output #0, matroska, to '/home/seluser/videos/vid_chrome_or_firefox_40002.mkv':
  Metadata:
    encoder         : Lavf56.40.101
    Stream #0:0: Video: h264 (libx264) (H264 / 0x34363248), yuv420p, 1366x768, q=-1--1, 10 fps, 1k tbn, 10 tbc
    Metadata:
      encoder         : Lavc56.60.100 libx264
Stream mapping:
  Stream #0:0 -> #0:0 (rawvideo (native) -> h264 (libx264))
Press [q] to stop, [?] for help
[swscaler @ 0xf6aca0] Warning: data is not aligned! This can lead to a speedloss
frame=    8 fps=0.0 q=10.0 size=      25kB time=00:00:00.40 bitrate= 511.9kbits/s    
frame=   13 fps= 12 q=9.0 size=      28kB time=00:00:00.90 bitrate= 252.6kbits/s    
frame=   19 fps= 11 q=9.0 size=      29kB time=00:00:01.50 bitrate= 155.8kbits/s    
frame=   24 fps= 11 q=9.0 size=      29kB time=00:00:02.00 bitrate= 119.2kbits/s    
frame=   30 fps= 11 q=11.0 size=      52kB time=00:00:02.60 bitrate= 163.2kbits/s    
frame=   36 fps= 11 q=9.0 size=      55kB time=00:00:03.20 bitrate= 141.6kbits/s    
frame=   42 fps= 10 q=9.0 size=      56kB time=00:00:03.80 bitrate= 121.7kbits/s    
frame=   48 fps= 10 q=9.0 size=      58kB time=00:00:04.40 bitrate= 107.8kbits/s    
frame=   53 fps= 10 q=9.0 size=      58kB time=00:00:04.90 bitrate=  97.8kbits/s    
frame=   58 fps= 10 q=9.0 size=      60kB time=00:00:05.40 bitrate=  91.1kbits/s    
frame=   64 fps= 10 q=12.0 size=      91kB time=00:00:06.00 bitrate= 124.5kbits/s    
frame=   70 fps= 10 q=9.0 size=     100kB time=00:00:06.60 bitrate= 124.2kbits/s    
frame=   75 fps= 10 q=9.0 size=     103kB time=00:00:07.10 bitrate= 118.5kbits/s    
frame=   80 fps= 10 q=9.0 size=     104kB time=00:00:07.60 bitrate= 111.6kbits/s    
frame=   85 fps= 10 q=9.0 size=     105kB time=00:00:08.10 bitrate= 106.0kbits/s    
frame=   91 fps= 10 q=9.0 size=     106kB time=00:00:08.70 bitrate=  99.8kbits/s    
frame=   96 fps= 10 q=9.0 size=     107kB time=00:00:09.20 bitrate=  95.4kbits/s    
frame=  102 fps= 10 q=9.0 size=     109kB time=00:00:09.80 bitrate=  90.8kbits/s    
frame=  107 fps= 10 q=9.0 size=     110kB time=00:00:10.30 bitrate=  87.1kbits/s    
frame=  113 fps= 10 q=10.0 size=     129kB time=00:00:10.90 bitrate=  97.2kbits/s    
frame=  119 fps= 10 q=9.0 size=     133kB time=00:00:11.50 bitrate=  95.0kbits/s    
frame=  125 fps= 10 q=9.0 size=     135kB time=00:00:12.10 bitrate=  91.4kbits/s    
frame=  130 fps= 10 q=9.0 size=     136kB time=00:00:12.60 bitrate=  88.5kbits/s    
frame=  136 fps= 10 q=16.0 size=     178kB time=00:00:13.20 bitrate= 110.5kbits/s    
frame=  141 fps= 10 q=13.0 size=     236kB time=00:00:13.70 bitrate= 141.2kbits/s    
frame=  146 fps= 10 q=10.0 size=     253kB time=00:00:14.20 bitrate= 146.1kbits/s    
frame=  151 fps= 10 q=10.0 size=     260kB time=00:00:14.70 bitrate= 145.0kbits/s    
frame=  156 fps= 10 q=13.0 size=     261kB time=00:00:15.20 bitrate= 140.9kbits/s    
frame=  162 fps= 10 q=14.0 size=     274kB time=00:00:15.80 bitrate= 142.3kbits/s    
frame=  168 fps= 10 q=15.0 size=     303kB time=00:00:16.40 bitrate= 151.5kbits/s    
frame=  174 fps= 10 q=11.0 size=     337kB time=00:00:17.00 bitrate= 162.6kbits/s    
frame=  180 fps= 10 q=10.0 size=     367kB time=00:00:17.60 bitrate= 171.0kbits/s    
frame=  185 fps= 10 q=9.0 size=     373kB time=00:00:18.10 bitrate= 169.0kbits/s    
frame=  190 fps= 10 q=9.0 size=     382kB time=00:00:18.60 bitrate= 168.1kbits/s    
frame=  196 fps= 10 q=9.0 size=     384kB time=00:00:19.20 bitrate= 163.6kbits/s    
frame=  201 fps= 10 q=9.0 size=     385kB time=00:00:19.70 bitrate= 160.0kbits/s    
frame=  206 fps= 10 q=12.0 size=     386kB time=00:00:20.20 bitrate= 156.7kbits/s    
frame=  211 fps= 10 q=13.0 size=     449kB time=00:00:20.70 bitrate= 177.8kbits/s    
frame=  216 fps= 10 q=10.0 size=     475kB time=00:00:21.20 bitrate= 183.4kbits/s    
frame=  221 fps= 10 q=9.0 size=     484kB time=00:00:21.70 bitrate= 182.9kbits/s    
frame=  226 fps= 10 q=9.0 size=     485kB time=00:00:22.20 bitrate= 178.9kbits/s    
frame=  232 fps= 10 q=16.0 size=     571kB time=00:00:22.80 bitrate= 205.2kbits/s    
frame=  237 fps= 10 q=10.0 size=     667kB time=00:00:23.30 bitrate= 234.4kbits/s    
frame=  243 fps= 10 q=9.0 size=     693kB time=00:00:23.90 bitrate= 237.4kbits/s    
frame=  249 fps= 10 q=9.0 size=     693kB time=00:00:24.50 bitrate= 231.8kbits/s    
frame=  255 fps= 10 q=17.0 size=     893kB time=00:00:25.10 bitrate= 291.4kbits/s    
frame=  260 fps= 10 q=10.0 size=     893kB time=00:00:25.60 bitrate= 285.8kbits/s    
frame=  265 fps= 10 q=12.0 size=     928kB time=00:00:26.10 bitrate= 291.2kbits/s    
frame=  271 fps= 10 q=9.0 size=     943kB time=00:00:26.70 bitrate= 289.4kbits/s    
frame=  277 fps= 10 q=9.0 size=     945kB time=00:00:27.30 bitrate= 283.7kbits/s    
frame=  282 fps= 10 q=9.0 size=     946kB time=00:00:27.80 bitrate= 278.6kbits/s    
frame=  287 fps= 10 q=9.0 size=     946kB time=00:00:28.30 bitrate= 273.8kbits/s    
frame=  293 fps= 10 q=9.0 size=     946kB time=00:00:28.90 bitrate= 268.2kbits/s    
frame=  299 fps= 10 q=9.0 size=     946kB time=00:00:29.50 bitrate= 262.8kbits/s    
frame=  304 fps= 10 q=9.0 size=     947kB time=00:00:30.00 bitrate= 258.5kbits/s    
frame=  310 fps= 10 q=9.0 size=     947kB time=00:00:30.60 bitrate= 253.5kbits/s    
frame=  315 fps= 10 q=9.0 size=     947kB time=00:00:31.10 bitrate= 249.5kbits/s    
frame=  321 fps= 10 q=9.0 size=     948kB time=00:00:31.70 bitrate= 244.9kbits/s    
frame=  327 fps= 10 q=9.0 size=     948kB time=00:00:32.30 bitrate= 240.4kbits/s    
frame=  332 fps= 10 q=9.0 size=     948kB time=00:00:32.80 bitrate= 236.8kbits/s    
frame=  337 fps= 10 q=9.0 size=     948kB time=00:00:33.30 bitrate= 233.3kbits/s    
frame=  342 fps= 10 q=9.0 size=     949kB time=00:00:33.80 bitrate= 229.9kbits/s    
frame=  347 fps= 10 q=9.0 size=     949kB time=00:00:34.30 bitrate= 226.6kbits/s    
frame=  353 fps= 10 q=9.0 size=     949kB time=00:00:34.90 bitrate= 222.8kbits/s    
frame=  358 fps= 10 q=9.0 size=     950kB time=00:00:35.40 bitrate= 219.7kbits/s    
frame=  363 fps= 10 q=9.0 size=     950kB time=00:00:35.90 bitrate= 216.7kbits/s    
frame=  368 fps= 10 q=9.0 size=     950kB time=00:00:36.40 bitrate= 213.8kbits/s    
frame=  374 fps= 10 q=10.0 size=     952kB time=00:00:37.00 bitrate= 210.9kbits/s    
frame=  380 fps= 10 q=11.0 size=     960kB time=00:00:37.60 bitrate= 209.2kbits/s    
frame=  386 fps= 10 q=14.0 size=     966kB time=00:00:38.20 bitrate= 207.1kbits/s    
frame=  391 fps= 10 q=11.0 size=     988kB time=00:00:38.70 bitrate= 209.2kbits/s    
frame=  397 fps= 10 q=9.0 size=     995kB time=00:00:39.30 bitrate= 207.5kbits/s    
frame=  403 fps= 10 q=13.0 size=    1021kB time=00:00:39.90 bitrate= 209.7kbits/s    
frame=  409 fps= 10 q=9.0 size=    1036kB time=00:00:40.50 bitrate= 209.7kbits/s    
frame=  415 fps= 10 q=9.0 size=    1038kB time=00:00:41.10 bitrate= 207.0kbits/s    
frame=  420 fps= 10 q=9.0 size=    1039kB time=00:00:41.60 bitrate= 204.5kbits/s    
frame=  426 fps= 10 q=9.0 size=    1040kB time=00:00:42.20 bitrate= 201.8kbits/s    
frame=  432 fps= 10 q=18.0 size=    1125kB time=00:00:42.80 bitrate= 215.4kbits/s    
frame=  437 fps= 10 q=10.0 size=    1222kB time=00:00:43.30 bitrate= 231.1kbits/s    
frame=  442 fps= 10 q=9.0 size=    1241kB time=00:00:43.80 bitrate= 232.2kbits/s    
frame=  447 fps= 10 q=9.0 size=    1242kB time=00:00:44.30 bitrate= 229.7kbits/s    
frame=  452 fps= 10 q=9.0 size=    1242kB time=00:00:44.80 bitrate= 227.2kbits/s    
frame=  458 fps= 10 q=9.0 size=    1243kB time=00:00:45.40 bitrate= 224.3kbits/s    
frame=  464 fps= 10 q=9.0 size=    1244kB time=00:00:46.00 bitrate= 221.5kbits/s    
frame=  469 fps= 10 q=9.0 size=    1244kB time=00:00:46.50 bitrate= 219.2kbits/s    
frame=  474 fps= 10 q=9.0 size=    1245kB time=00:00:47.00 bitrate= 217.0kbits/s    
frame=  479 fps= 10 q=9.0 size=    1245kB time=00:00:47.50 bitrate= 214.8kbits/s    
frame=  485 fps= 10 q=9.0 size=    1246kB time=00:00:48.10 bitrate= 212.2kbits/s    
frame=  490 fps= 10 q=9.0 size=    1247kB time=00:00:48.60 bitrate= 210.1kbits/s    
frame=  496 fps= 10 q=9.0 size=    1247kB time=00:00:49.20 bitrate= 207.7kbits/s    
frame=  502 fps= 10 q=9.0 size=    1248kB time=00:00:49.80 bitrate= 205.3kbits/s    
frame=  508 fps= 10 q=11.0 size=    1377kB time=00:00:50.40 bitrate= 223.9kbits/s    
frame=  514 fps= 10 q=9.0 size=    1378kB time=00:00:51.00 bitrate= 221.3kbits/s    
frame=  519 fps= 10 q=9.0 size=    1378kB time=00:00:51.50 bitrate= 219.2kbits/s    
frame=  524 fps= 10 q=9.0 size=    1378kB time=00:00:52.00 bitrate= 217.1kbits/s    
frame=  529 fps= 10 q=9.0 size=    1378kB time=00:00:52.50 bitrate= 215.0kbits/s    
frame=  535 fps= 10 q=13.0 size=    1406kB time=00:00:53.10 bitrate= 216.8kbits/s    
--40002LOG 18:09:38:516862100 Trapped SIGTERM or SIGINT so shutting down ffmpeg gracefully...
--40002LOG 18:09:38:551438700 Will kill VID_TOOL_PID=685 ...
frame=  538 fps= 10 q=-1.0 Lsize=    1415kB time=00:00:53.80 bitrate= 215.4kbits/s    
video:1410kB audio:0kB subtitle:0kB other streams:0kB global headers:0kB muxing overhead: 0.309920%
[libx264 @ 0xf5f320] frame I:3     Avg QP:11.00  size:117042
[libx264 @ 0xf5f320] frame P:535   Avg QP:10.10  size:  2042
[libx264 @ 0xf5f320] mb I  I16..4: 100.0%  0.0%  0.0%
[libx264 @ 0xf5f320] mb P  I16..4:  1.7%  0.0%  0.0%  P16..4:  1.8%  0.0%  0.0%  0.0%  0.0%    skip:96.5%
[libx264 @ 0xf5f320] coded y,uvDC,uvAC intra: 16.8% 11.1% 10.3% inter: 0.8% 0.9% 0.5%
[libx264 @ 0xf5f320] i16 v,h,dc,p: 72% 25%  2%  1%
[libx264 @ 0xf5f320] i8c dc,h,v,p: 81% 16%  3%  1%
[libx264 @ 0xf5f320] kb/s:214.67
Exiting normally, received signal 2.
--40002LOG 18:09:39:579594300 Tried to kill -SIGTERM VID_TOOL_PID=685
--40002LOG 18:09:39:594647100 Waiting up to 6s for VID_TOOL_PID=685 to end with SIGTERM...
--40002LOG 18:09:39:626184300 wait_pid successfully managed to SIGTERM:VID_TOOL_PID=685 within less than 6s
--40002LOG 18:09:39:635480700 Will try to fix the videos...
--40002LOG 18:09:40:194512600 Fixing perms for /home/seluser/videos/vid_chrome_or_firefox_40002.mkv*
--40002LOG 18:09:40:257951200 Changing video encoding from mkv to mp4...
--40002LOG 18:09:48:876256900 Conversion from mkv to mp4 succeeded!
--40002LOG 18:09:48:900979500 Cleaning up /home/seluser/videos/vid_chrome_or_firefox_40002.mkv ...
--40002LOG 18:09:48:919519400 Optimizing /home/seluser/videos/vid_chrome_or_firefox_40002.mp4 for HTTP streaming...
--40002LOG 18:09:49:017084300 Succeeded to mp4box_retry.sh within 8s
--40002LOG 18:09:49:033329400 ffmpeg shutdown complete.
